<svg width="230" height="45" viewBox="0 0 230 45" fill="none" xmlns="http://www.w3.org/2000/svg">
<g id="Logo">
<path id="Vector" d="M29.94 4.36612C29.7473 4.21011 29.5469 4.05921 29.3412 3.91087C26.0165 1.51957 22.0254 0.325195 17.3652 0.325195C13.5667 0.325195 10.1171 1.20499 7.01897 2.96202C3.92344 4.7165 1.58291 7.29195 0 10.6858L11.9395 16.5707C13.1606 13.6705 15.0377 12.2178 17.5709 12.2178C18.6123 12.2178 19.4037 12.4531 19.9452 12.9237C20.4894 13.3942 20.7601 13.9748 20.7601 14.6705C20.7601 14.9569 20.7028 15.2331 20.5909 15.4991C20.4789 15.7651 20.3644 16.0106 20.2524 16.2331C20.1405 16.4582 19.914 16.7446 19.5755 17.0925C19.2371 17.4403 18.9637 17.7165 18.7607 17.9211C18.5576 18.1257 18.1957 18.471 17.675 18.962C17.1543 19.4531 16.7612 19.8418 16.4878 20.1283L1.01796 35.2689V44.2203H35.3448H49.0469L63.1577 11.361V1.30474H29.94V4.36612ZM35.3422 41.3738V32.3252H21.7755L26.5919 27.4812C29.2605 24.7856 31.2157 22.4761 32.4601 20.5528C33.702 18.6321 34.3242 16.384 34.3242 13.8086C34.3242 13.6014 34.3164 13.3994 34.3086 13.1973H47.4406L35.3422 41.3712V41.3738Z" fill="#101010"/>
<path id="Vector_2" d="M110.314 27.5271H125.613V16.7061H110.314V12.1409H127.276V1.19971H97.0133V31.614H82.1813L97.0133 10.4555V1.19971H65.0869V12.8596H79.5857L64.7537 34.0181V43.2739H97.6772H127.609V32.2151H110.314V27.5271Z" fill="#101010"/>
<path id="Vector_3" d="M188.89 0.238281C181.973 0.238281 176.13 2.35337 171.363 6.57844C169.161 8.5324 167.474 10.7012 166.287 13.0797C165.711 9.92626 164.134 7.29711 161.551 5.19736C158.226 2.49148 154.011 1.14109 148.914 1.14109H129.781V43.2766H143.595V29.9928H146.919L154.303 43.2153H168.536L159.359 27.5273C161.39 26.4122 163.014 24.9876 164.238 23.2587C164.488 29.0235 166.859 33.9007 171.363 37.8956C176.13 42.1232 181.973 44.2357 188.89 44.2357C195.807 44.2357 201.647 42.1232 206.417 37.8956C211.184 33.668 213.566 28.448 213.566 22.2383C213.566 16.0286 211.181 10.8086 206.417 6.58099C201.65 2.35337 195.807 0.240839 188.89 0.240839V0.238281ZM152.009 19.0516C151.189 19.7344 150.07 20.0541 148.651 20.0132H143.597V12.1999H148.651C150.07 12.1999 151.189 12.5503 152.009 13.2511C152.829 13.9518 153.241 14.9237 153.241 16.1667C153.241 17.4096 152.829 18.3713 152.009 19.0516ZM197.039 29.5401C194.888 31.4838 192.173 32.4557 188.893 32.4557C185.612 32.4557 182.894 31.4838 180.744 29.5401C178.593 27.5963 177.518 25.1641 177.518 22.2383C177.518 19.3125 178.593 16.8802 180.744 14.9365C182.894 12.9928 185.61 12.0209 188.893 12.0209C192.176 12.0209 194.888 12.9928 197.039 14.9365C199.189 16.8802 200.265 19.315 200.265 22.2383C200.265 25.1616 199.189 27.5989 197.039 29.5401Z" fill="#101010"/>
<path id="Vector_4" d="M222.704 31.2305C218.731 31.2305 215.508 34.141 215.508 37.7343C215.508 41.3277 218.731 44.2381 222.704 44.2381C226.677 44.2381 229.9 41.3251 229.9 37.7343C229.9 34.1435 226.679 31.2305 222.704 31.2305Z" fill="#101010"/>
</g>
</svg>
